<svg 
          width="16.75" 
          height="16.754106521606445" fill="none" 
          xmlns="http://www.w3.org/2000/svg">
          <path d="M 3.4923750638961795 13.40205361834346 C 3.6654042199254038 12.911669726707954 3.98628154695034 12.487029666825036 4.41077721118927 12.186665138463697 C 4.8352728754282 11.886300610102358 5.342485188692808 11.725000834260552 5.8625 11.725000834260554 C 6.382514811307192 11.725000834260552 6.889727124571801 11.886300610102358 7.3142227888107305 12.186665138463697 C 7.73871845304966 12.487029666825036 8.059595780074597 12.911669726707954 8.232624936103822 13.40205361834346 L 16.75 13.40205361834346 L 16.75 15.077053737523539 L 8.232624936103822 15.077053737523539 C 8.059595780074597 15.567437629159045 7.73871845304966 15.992077689041963 7.3142227888107305 16.292442217403302 C 6.889727124571801 16.59280674576464 6.382514811307192 16.75410652160645 5.8625 16.754106521606445 C 5.342485188692808 16.75410652160645 4.8352728754282 16.59280674576464 4.41077721118927 16.292442217403302 C 3.98628154695034 15.992077689041963 3.6654042199254038 15.567437629159045 3.4923750638961795 15.077053737523539 L 0 15.077053737523539 L 0 13.40205361834346 L 3.4923750638961795 13.40205361834346 Z M 8.51737506389618 7.539553201213183 C 8.690404219925405 7.049169309577676 9.011281546950341 6.624528051641314 9.43577721118927 6.324163523279975 C 9.8602728754282 6.023798994918637 10.36748518869281 5.862500017779129 10.887500000000001 5.862500017779129 C 11.407514811307193 5.862500017779129 11.914727124571801 6.023798994918637 12.33922278881073 6.324163523279975 C 12.763718453049659 6.624528051641314 13.084595780074597 7.049169309577676 13.257624936103822 7.539553201213183 L 16.75 7.539553201213183 L 16.75 9.214553320393263 L 13.257624936103822 9.214553320393263 C 13.084595780074597 9.704937212028769 12.763718453049659 10.129578070613983 12.33922278881073 10.429942598975321 C 11.914727124571801 10.73030712733666 11.407514811307193 10.891606104476168 10.887500000000001 10.891606104476168 C 10.36748518869281 10.891606104476168 9.8602728754282 10.73030712733666 9.43577721118927 10.429942598975321 C 9.011281546950341 10.129578070613983 8.690404219925405 9.704937212028769 8.51737506389618 9.214553320393263 L 0 9.214553320393263 L 0 7.539553201213183 L 8.51737506389618 7.539553201213183 Z M 3.4923750638961795 1.6770523847317576 C 3.6654042199254038 1.186668493096251 3.98628154695034 0.7620281336999727 4.41077721118927 0.4616636053386339 C 4.8352728754282 0.16129907697729506 5.342485188692808 0 5.8625 0 C 6.382514811307192 0 6.889727124571801 0.16129907697729506 7.3142227888107305 0.4616636053386339 C 7.73871845304966 0.7620281336999727 8.059595780074597 1.186668493096251 8.232624936103822 1.6770523847317576 L 16.75 1.6770523847317576 L 16.75 3.3520525039118367 L 8.232624936103822 3.3520525039118367 C 8.059595780074597 3.8424363955473435 7.73871845304966 4.267076854781409 7.3142227888107305 4.567441383142747 C 6.889727124571801 4.867805911504086 6.382514811307192 5.029105287994742 5.8625 5.029105287994742 C 5.342485188692808 5.029105287994742 4.8352728754282 4.867805911504086 4.41077721118927 4.567441383142747 C 3.98628154695034 4.267076854781409 3.6654042199254038 3.8424363955473435 3.4923750638961795 3.3520525039118367 L 0 3.3520525039118367 L 0 1.6770523847317576 L 3.4923750638961795 1.6770523847317576 Z M 5.8625 3.3520525039118367 C 6.084618818387389 3.3520525039118367 6.297640056349337 3.263815979988188 6.454701769351959 3.106754255810266 C 6.611763482354581 2.9496925316323437 6.7 2.736671278513448 6.7 2.5145524443217973 C 6.7 2.2924336101301463 6.611763482354581 2.0794123570112504 6.454701769351959 1.9223506328333282 C 6.297640056349337 1.7652889086554062 6.084618818387389 1.677052384731758 5.8625 1.6770523847317576 C 5.640381181612611 1.677052384731758 5.4273599436506625 1.7652889086554062 5.270298230648041 1.9223506328333282 C 5.113236517645419 2.0794123570112504 5.0249999999999995 2.2924336101301463 5.025 2.5145524443217973 C 5.0249999999999995 2.736671278513448 5.113236517645419 2.9496925316323437 5.270298230648041 3.106754255810266 C 5.4273599436506625 3.263815979988188 5.640381181612611 3.3520525039118367 5.8625 3.3520525039118367 L 5.8625 3.3520525039118367 Z M 10.887500000000001 9.214553320393263 C 11.109618818387391 9.214553320393263 11.322640056349337 9.126316796469613 11.47970176935196 8.969255072291691 C 11.636763482354583 8.81219334811377 11.725 8.599172094994874 11.725 8.377053260803223 C 11.725 8.154934426611572 11.636763482354583 7.941913173492676 11.47970176935196 7.784851449314754 C 11.322640056349337 7.627789725136832 11.109618818387391 7.539553201213183 10.887500000000001 7.539553201213183 C 10.665381181612611 7.539553201213183 10.452359943650665 7.627789725136832 10.295298230648042 7.784851449314754 C 10.138236517645419 7.941913173492676 10.05 8.154934426611572 10.05 8.377053260803223 C 10.05 8.599172094994874 10.138236517645419 8.81219334811377 10.295298230648042 8.969255072291691 C 10.452359943650665 9.126316796469613 10.665381181612611 9.214553320393263 10.887500000000001 9.214553320393263 L 10.887500000000001 9.214553320393263 Z M 5.8625 15.077053737523539 C 6.084618818387389 15.077053737523539 6.297640056349337 14.988818012302188 6.454701769351959 14.831756288124266 C 6.611763482354581 14.674694563946344 6.7 14.461672512125151 6.7 14.2395536779335 C 6.7 14.01743484374185 6.611763482354581 13.804412791920656 6.454701769351959 13.647351067742735 C 6.297640056349337 13.490289343564813 6.084618818387389 13.40205361834346 5.8625 13.40205361834346 C 5.640381181612611 13.40205361834346 5.4273599436506625 13.490289343564813 5.270298230648041 13.647351067742735 C 5.113236517645419 13.804412791920656 5.0249999999999995 14.01743484374185 5.025 14.2395536779335 C 5.0249999999999995 14.461672512125151 5.113236517645419 14.674694563946344 5.270298230648041 14.831756288124266 C 5.4273599436506625 14.988818012302188 5.640381181612611 15.077053737523539 5.8625 15.077053737523539 L 5.8625 15.077053737523539 Z" fill="rgb(106.2499974668026,106.2499974668026,159.375)"/>
        </svg>