<svg width="228" height="468" xmlns="http://www.w3.org/2000/svg" xmlns:xlink="http://www.w3.org/1999/xlink" xml:space="preserve" overflow="hidden"><defs><clipPath id="clip0"><rect x="648" y="180" width="228" height="468"/></clipPath><clipPath id="clip1"><rect x="648" y="180" width="227" height="467"/></clipPath><clipPath id="clip2"><rect x="648" y="180" width="227" height="467"/></clipPath><clipPath id="clip3"><rect x="648" y="180" width="227" height="467"/></clipPath></defs><g clip-path="url(#clip0)" transform="translate(-648 -180)"><g clip-path="url(#clip1)"><g clip-path="url(#clip2)"><g clip-path="url(#clip3)"><path d="M597.499 302.077C596.337 306.522 594.935 310.899 593.299 315.192 589.166 327.177 586.101 339.505 584.139 352.03 582.248 364.605 580.651 377.228 579.227 389.876 578.613 395.083 578.466 400.363 577.876 405.594 577.596 409.509 576.879 413.382 575.74 417.137 574.86 420 572.859 422.385 570.189 423.743 567.957 425.03 565.793 426.432 563.706 427.943 563.534 428.913 562.799 429.686 561.839 429.908 556.677 431.349 551.266 431.659 545.974 430.816 545.385 430.816 544.992 430.227 544.549 429.883 540.497 429.686 536.445 429.195 532.417 428.655 531.575 429.473 530.322 429.696 529.249 429.22 524.811 428.203 520.509 426.671 516.429 424.652 515.201 424.038 513.826 423.35 513.973 421.557 505.574 414.779 506.36 415.958 504.002 403.826 502.308 395.205 501.424 386.438 500.048 377.744 497.961 364.335 496.291 350.729 495.137 337.32 494.547 330.173 493.393 323.075 493.123 315.904 492.663 304.622 492.87 293.319 493.737 282.062 494.473 273.122 495.529 264.183 495.726 255.047 495.898 248.293 497.003 241.539 497.691 234.785 497.691 233.459 497.912 232.108 498.034 230.782 498.157 229.456 498.87 229.137 499.876 228.916 503.079 227.948 506.37 227.299 509.7 226.975 515.273 229.283 521.253 230.452 527.284 230.414 540.571 230.758 553.833 229.702 567.095 229.014 577.024 228.509 586.86 231.138 595.215 236.529 598.499 238.54 601.47 241.022 604.032 243.897 605.94 245.697 606.957 248.251 606.807 250.871 605.432 262.93 604.793 275.087 602.239 286.998 601.404 290.927 600.201 294.759 599.341 298.688 598.997 299.965 597.548 300.677 597.499 302.077Z" fill="#F4F0F0" fill-rule="nonzero" fill-opacity="1" transform="matrix(1 0 0 1.00142 239.115 168.064)"/><path d="M624.44 287.121C623.596 290.76 621.768 294.098 619.16 296.772 617.416 296.527 617.711 295.201 617.981 294.169 620.437 285.377 617.981 277.223 615.059 268.996 612.456 261.628 610.491 254.261 607.691 246.893 604.027 236.808 598.58 227.466 591.605 219.313 588.388 216.857 586.496 212.903 582.69 210.914 575.543 207.156 568.175 204.749 559.948 206.002 558.425 206.223 556.755 206.911 555.208 206.002 554.282 204.183 552.325 203.127 550.296 203.35 548.749 203.35 547.03 203.718 545.728 202.416 544.967 200.427 546.465 199.96 547.791 199.371 554.14 196.976 560.727 195.263 567.439 194.263 580.455 191.807 590.107 198.438 599.365 205.879 601.799 207.858 603.985 210.126 605.874 212.633 603.017 205.309 598.612 198.69 592.956 193.231 583.304 184.169 572.056 184.414 560.537 188.982 553.74 192.073 547.229 195.763 541.087 200.01 538.631 201.606 535.585 202.465 532.933 203.841 527.407 204.111 521.857 203.841 516.356 204.479 514.641 204.721 512.893 204.527 511.272 203.914 509.774 203.325 509.626 201.925 509.356 200.624 507.392 191.684 506.164 182.597 504.616 173.608 503.167 165.136 502.013 156.614 500.417 148.165 499.908 144.484 498.268 141.052 495.726 138.342 495.259 137.85 494.793 137.359 495.014 136.598 497.946 131.87 501.461 127.53 505.476 123.68 507.183 122.132 508.394 120.116 508.963 117.884 509.565 115.214 511.098 112.846 513.286 111.204 515.486 109.502 517.36 107.413 518.812 105.039 519.909 103.23 520.511 101.163 520.555 99.047 520.715 96.9857 519.784 94.9913 518.099 93.7913 515.491 91.6524 513.48 88.8782 512.254 85.7359 508.602 76.9516 507.143 67.4094 508.006 57.935 508.342 51.7127 509.558 45.5695 511.616 39.6875 517.706 23.7732 528.807 15.1284 545.999 13.6303 548.575 13.3806 551.171 13.4384 553.735 13.8022 559.057 14.7745 563.909 17.4767 567.537 21.4892 574.354 28.2283 578.615 37.127 579.595 46.6623 580.128 53.3456 580.02 60.0643 579.276 66.7271 578.768 72.8343 578.097 78.9166 577.262 84.9746 576.491 88.0015 578.137 91.1203 581.069 92.195 585.553 93.6756 588.709 97.7036 589.075 102.412 589.623 104.481 590.907 106.28 592.685 107.471 594.726 109.335 596.959 110.981 599.341 112.383 606.001 116.074 611.372 121.712 614.74 128.542 618.792 136.345 621.94 144.585 624.121 153.102 626.037 160.469 627.51 168.034 629.033 175.524 630.556 183.015 630.998 189.916 631.906 197.112 632.815 204.307 633.404 211.184 634.362 218.208 635.222 224.814 635.099 231.568 635.516 238.248 636.02 243.877 636.02 249.54 635.516 255.169 635.072 258.396 634.438 261.594 633.625 264.747 633.036 267.203 631.366 269.094 630.678 271.452 628.836 271.452 628.812 269.905 629.033 268.726 630.261 261.358 628.149 254.703 625.889 247.949 624.566 243.924 623.483 239.823 622.648 235.669 624.055 241.017 625.025 246.47 625.546 251.977 626.577 263.323 627.314 274.645 624.932 285.942 624.833 286.359 624.669 286.757 624.44 287.121Z" fill="#F4F0F0" fill-rule="nonzero" fill-opacity="1" transform="matrix(1 0 0 1.00142 239.115 168.064)"/><path d="M472.002 222.579C459.28 223.12 446.583 223.807 433.837 223.758 432.118 223.758 430.399 223.758 428.68 223.758 427.623 223.718 426.585 223.459 425.634 222.997 424.136 222.211 423.596 221.302 424.185 219.73 424.679 218.332 424.738 216.817 424.357 215.384 421.754 203.104 418.561 191.193 415.761 179.085 413.748 170.219 411.685 161.378 409.646 152.512 409.474 151.775 409.278 151.039 409.081 150.277 408.379 147.52 409.592 144.632 412.053 143.204 413.458 142.372 415.062 141.931 416.695 141.927 431.749 141.927 446.632 139.619 461.589 138.489 468.76 137.949 475.907 137.58 483.078 137.064 486.114 136.655 489.181 136.54 492.239 136.721 494.142 136.886 495.841 137.98 496.782 139.643 498.7 142.296 499.923 145.386 500.343 148.632 501.792 160.125 504.543 171.398 506.114 182.843 507.244 190.996 509.111 198.978 510.511 207.058 510.744 208.873 510.363 210.715 509.43 212.289 506.387 213.532 503.189 214.357 499.926 214.745 497.467 214.978 495.097 215.777 493 217.078 492.383 217.556 491.553 217.66 490.839 217.348 487.688 216.882 484.485 216.882 481.334 217.348 472.346 217.962 463.357 218.232 454.319 218.527 446.681 218.748 439.019 218.11 433.125 219.166 445.036 218.232 458.691 218.871 472.419 218.011 477.626 217.668 482.857 217.569 488.064 217.029 489.52 216.645 491.03 217.432 491.551 218.846 491.944 221.597 490.028 222.088 488.039 222.26 484.404 222.604 480.671 222.26 477.135 222.53 475.391 222.678 473.696 223.488 472.002 222.579Z" fill="#AAFFF0" fill-rule="nonzero" fill-opacity="1" transform="matrix(1 0 0 1.00142 239.115 168.064)"/><path d="M472.002 222.579C473.583 221.509 475.475 220.991 477.38 221.106 480.868 220.909 484.38 221.302 487.867 220.934 488.709 220.9 489.539 220.726 490.323 220.418 490.986 220.074 490.47 219.608 490.323 219.215 490.126 218.159 489.586 217.004 491.158 216.489L494.056 214.647C495.07 213.896 496.306 213.507 497.568 213.542 499.39 213.661 501.212 213.297 502.848 212.486 504.759 211.875 506.765 211.625 508.767 211.749 509.97 210.275 511.419 211.159 512.77 211.331 513.703 211.331 514.636 211.552 515.57 211.675 519.524 213.812 523.576 212.657 527.505 211.675 536.445 209.661 545.213 207.009 554.054 204.676 554.521 204.735 554.965 204.903 555.356 205.167 558.204 205.167 560.98 204.332 563.853 204.283 575.172 203.686 585.959 209.136 592.194 218.601 592.636 220.639 591.31 221.278 589.738 221.769 584.925 223.044 579.981 223.761 575.003 223.906 568.323 224.372 561.716 225.428 555.061 225.993 553.258 226.197 551.446 226.304 549.633 226.312 538.459 226.394 527.294 227.041 516.184 228.253 513.9 228.474 511.64 228.253 509.381 228.253 505.476 228.67 501.792 229.947 497.961 230.708 491.323 231.485 484.596 230.467 478.485 227.761 476.796 226.952 475.155 226.041 473.574 225.035 472.638 224.567 472.036 223.624 472.002 222.579Z" fill="#986437" fill-rule="nonzero" fill-opacity="1" transform="matrix(1 0 0 1.00142 239.115 168.064)"/><path d="M509.455 228.4C513.784 227.208 518.232 226.499 522.716 226.288 531.017 225.625 539.318 225.035 547.644 225.035 555.012 225.035 562.379 223.709 569.747 223.095 574.659 222.678 579.571 222.113 584.311 221.646 586.302 221.416 588.267 220.996 590.18 220.394 591.143 220.236 591.958 219.597 592.342 218.699 596.89 222.971 600.603 228.051 603.295 233.68 607.313 241.732 610.704 250.083 613.438 258.657 614.985 263.961 616.802 269.217 618.546 274.473 620.793 280.932 621.09 287.909 619.406 294.538 619.234 295.25 618.816 295.987 619.258 296.772 616.584 300.235 612.406 302.2 608.035 302.053 605.532 302.271 603.013 301.918 600.667 301.021 599.621 300.419 598.285 300.778 597.683 301.824 597.632 301.915 597.587 302.006 597.548 302.102 597.585 299.808 597.956 297.534 598.653 295.348 601.252 285.944 602.954 276.315 603.737 266.589 604.228 261.677 604.67 256.766 605.284 251.854 605.662 249.565 605.026 247.227 603.541 245.444 600.574 242.051 597.032 239.208 593.078 237.045 586.919 233.51 580.064 231.364 572.989 230.758 568.023 230.499 563.047 230.647 558.106 231.2 557.443 231.2 556.78 231.372 556.117 231.372 547.791 231.372 539.49 232.084 531.165 232.059 523.765 232.173 516.407 230.933 509.455 228.4Z" fill="#BABABA" fill-rule="nonzero" fill-opacity="1" transform="matrix(1 0 0 1.00142 239.115 168.064)"/><path d="M544.549 429.785 552.801 429.785C556.522 429.792 560.216 429.136 563.706 427.845 564.41 428.206 564.941 428.834 565.179 429.588 565.26 432.076 564.686 434.542 563.509 436.735 560.415 444.422 557.762 452.33 552.016 458.666 549.962 461.206 547.467 463.352 544.648 465.002 543.388 465.702 541.961 466.044 540.522 465.985 537.526 465.862 536.101 464.413 536.347 461.441 536.266 459.909 536.725 458.396 537.648 457.168 540.758 450.805 543.098 444.093 544.623 437.177 545.041 434.728 545.016 432.223 544.549 429.785Z" fill="#986437" fill-rule="nonzero" fill-opacity="1" transform="matrix(1 0 0 1.00142 239.115 168.064)"/><path d="M537.845 457.168C537.567 458.674 537.508 460.213 537.673 461.736 537.646 463.485 539.041 464.926 540.789 464.953 541.158 464.961 541.524 464.902 541.873 464.781 543.842 464.303 545.635 463.281 547.055 461.834 551.794 457.647 555.552 452.465 558.057 446.657 559.948 442.089 561.741 437.447 563.607 432.855 563.887 431.639 564.469 430.517 565.302 429.588 566.486 431.219 567.365 433.049 567.905 434.991 568.421 436.647 568.421 438.42 567.905 440.075 565.675 447.305 562.851 454.336 559.457 461.098 557.244 465.474 554.12 469.325 550.296 472.395 547.195 474.664 543.572 476.118 539.76 476.619 536.558 477.272 533.432 475.204 532.778 472.002 532.687 471.55 532.648 471.088 532.663 470.627 532.624 468.419 533.017 466.226 533.817 464.167 534.657 461.822 535.684 459.548 536.887 457.365 536.961 456.996 537.231 456.382 537.845 457.168Z" fill="#202020" fill-rule="nonzero" fill-opacity="1" transform="matrix(1 0 0 1.00142 239.115 168.064)"/><path d="M513.949 421.459C518.866 424.534 524.298 426.69 529.986 427.82 530.796 427.992 531.607 428.311 532.442 428.557 532.272 431.722 532.486 434.898 533.08 438.012 532.786 439.314 531.705 439.412 530.624 439.633 527.628 440.271 524.755 441.303 521.832 442.089 513.003 444.559 503.799 445.392 494.67 444.545 493.017 444.577 491.448 443.82 490.446 442.506 489.684 441.377 489.267 440.271 490.765 439.363 495.891 437.845 500.883 435.915 505.697 433.591 509.897 431.892 512.758 427.943 513.065 423.424 513.04 422.667 513.367 421.943 513.949 421.459Z" fill="#986437" fill-rule="nonzero" fill-opacity="1" transform="matrix(1 0 0 1.00142 239.115 168.064)"/><path d="M490.79 439.387C490.323 441.327 491.477 442.261 493.049 442.801 494.508 443.28 496.033 443.528 497.568 443.538 504.145 443.562 510.712 443.086 517.215 442.113 518.627 441.86 520.005 441.44 521.317 440.861 525.01 439.269 528.945 438.307 532.958 438.012 535.502 441.013 535.131 445.507 532.132 448.049 531.813 448.319 531.474 448.56 531.116 448.769 530.303 449.275 529.389 449.592 528.439 449.702 525.02 450.164 521.565 450.272 518.124 450.021 513.062 449.567 507.964 449.741 502.946 450.537 497.946 451.355 492.86 451.512 487.818 451.004 485.723 450.729 483.704 450.046 481.875 448.99 478.51 447.001 478.485 444.201 481.875 442.089 484.475 440.247 487.604 439.299 490.79 439.387Z" fill="#202020" fill-rule="nonzero" fill-opacity="1" transform="matrix(1 0 0 1.00142 239.115 168.064)"/><path d="M512.868 212.387 508.841 211.749C509.396 208.533 509.219 205.235 508.325 202.097 507.291 198.315 506.471 194.478 505.869 190.603 505.108 183.751 503.413 177.047 502.578 170.219 502.308 168.132 501.964 166.044 501.522 164.006 500.385 159.153 499.565 154.23 499.066 149.27 498.585 145.452 497.177 141.81 494.965 138.661 494.277 137.74 493.363 137.013 492.312 136.549L495.112 136.549 497.101 138.194C499.417 140.078 500.95 142.757 501.399 145.709 504.715 162.213 506.728 178.913 509.774 195.466 510.265 197.922 510.805 200.525 511.321 203.055 513.359 204.946 513.359 207.623 514.023 210.03 514.285 210.994 513.792 212.003 512.868 212.387Z" fill="#88D1C4" fill-rule="nonzero" fill-opacity="1" transform="matrix(1 0 0 1.00142 239.115 168.064)"/><path d="M624.44 287.121C624.44 279.581 625.349 272.041 625.005 264.477 624.76 258.927 624.318 253.401 623.532 247.924 622.746 242.448 621.886 237.339 621.076 232.059 620.86 231.072 620.955 230.043 621.346 229.112 622.078 229.732 622.535 230.614 622.623 231.568 624.195 238.003 626.233 244.265 628.247 250.577 629.922 255.069 630.754 259.831 630.703 264.625 630.71 265.87 630.597 267.112 630.359 268.333 630.008 269.345 630.096 270.46 630.605 271.403 628.63 276.074 626.901 280.846 625.423 285.696 625.243 286.259 624.902 286.755 624.44 287.121Z" fill="#D8D8D8" fill-rule="nonzero" fill-opacity="1" transform="matrix(1 0 0 1.00142 239.115 168.064)"/><path d="M511.149 279.164C513.728 280.981 516.061 282.43 518.173 284.075 521.27 286.642 524.708 288.766 528.39 290.387 534.338 293.477 540.699 295.702 547.276 296.993 550.854 297.657 554.533 297.583 558.082 296.772 566.147 294.737 574.099 292.278 581.904 289.405 582.837 289.061 583.721 288.373 584.826 288.619 584.826 288.963 584.826 289.208 584.826 289.307 577.95 295.962 570.877 302.372 561.79 305.982 555.478 308.917 548.066 308.153 542.487 303.993 539.613 301.905 536.715 299.916 534.063 297.558 530.435 294.751 526.629 292.182 522.667 289.871 519.106 287.415 515.987 284.444 512.672 281.718 511.8 281.143 511.24 280.202 511.149 279.164Z" fill="#D8D8D8" fill-rule="nonzero" fill-opacity="1" transform="matrix(1 0 0 1.00142 239.115 168.064)"/><path d="M501.399 238.837C504.985 244.339 509.676 248.809 513.458 254.113 518.62 261.751 525.565 268.014 533.694 272.361 536.28 273.554 538.672 275.126 540.792 277.027 539.1 276.455 537.459 275.75 535.88 274.915 532.147 272.459 528.095 270.838 524.362 268.48 518.185 264.765 512.903 259.732 508.89 253.745 505.881 249.663 503.406 245.215 501.522 240.508 501.276 240.09 500.761 239.599 501.399 238.837Z" fill="#DADADA" fill-rule="nonzero" fill-opacity="1" transform="matrix(1 0 0 1.00142 239.115 168.064)"/><path d="M521.538 36.5194C525.172 34.7738 529.212 34.0439 533.228 34.4073 538.427 34.8423 543.201 37.4561 546.367 41.6032 552.703 49.1674 554.963 58.0578 555.601 67.5867 555.908 71.3976 555.685 75.2327 554.938 78.9821 554.427 81.9057 553.211 84.6614 551.401 87.013 547.45 91.3106 541.585 93.3085 535.831 92.3178 533.623 92.0083 531.614 90.8766 530.207 89.1496 525.241 83.6732 521.388 77.2839 518.861 70.3373 516.429 62.8065 515.553 54.8612 516.282 46.9816 516.552 42.9286 518.448 39.1566 521.538 36.5194Z" fill="#986437" fill-rule="nonzero" fill-opacity="1" transform="matrix(1 0 0 1.00142 239.115 168.064)"/><path d="M533.596 202.515C538.154 200.305 542.541 197.752 546.711 194.877 550.576 192.411 554.604 190.212 558.769 188.295 565.766 184.809 573.733 183.78 581.388 185.372 587.029 186.626 592.096 189.708 595.804 194.14 598.481 197.151 600.883 200.398 602.976 203.841 605.098 207.035 606.75 210.517 607.888 214.18 608.158 215.04 608.722 215.948 607.888 217.004 606.652 216.107 605.608 214.971 604.818 213.664 599.024 206.492 591.539 200.871 583.034 197.308 578.628 195.379 573.748 194.798 569.01 195.638 561.807 196.602 554.732 198.356 547.914 200.869 547.094 201.131 546.33 201.539 545.655 202.072 543.002 204.356 535.905 204.651 533.596 202.515Z" fill="#D8D8D8" fill-rule="nonzero" fill-opacity="1" transform="matrix(1 0 0 1.00142 239.115 168.064)"/><path d="M514.538 126.258C514.764 126.486 514.968 126.732 515.152 126.995 517.512 133.488 522.589 138.627 529.053 141.068 535.502 143.887 542.906 143.468 548.995 139.938 554.118 137.295 558.752 133.798 562.699 129.599 565.548 126.504 568.789 123.778 571.344 120.389 572.134 119.319 573.05 118.346 574.07 117.491 573.47 120.718 571.923 123.694 569.624 126.037 564.713 130.949 560.267 136.131 555.871 141.436 552.87 144.696 549.422 147.516 545.63 149.811 544.599 150.498 543.469 151.063 542.462 151.775 540.554 153.087 538.294 153.797 535.978 153.814 534.75 153.814 533.522 153.814 532.245 153.814 529.048 154.245 525.872 152.875 523.994 150.253 521.147 147.003 518.866 143.301 517.24 139.299 515.867 135.723 514.848 132.022 514.194 128.248 513.981 127.568 514.111 126.827 514.538 126.258Z" fill="#D8D8D8" fill-rule="nonzero" fill-opacity="1" transform="matrix(1 0 0 1.00142 239.115 168.064)"/><path d="M521.538 36.5194C519.173 40.7871 517.662 45.4756 517.092 50.3216 516.957 51.6599 517.124 53.0111 517.584 54.2757 518.347 56.6537 518.689 59.1475 518.591 61.6434 518.47 66.1613 519.71 70.6109 522.152 74.4141 524.607 78.4664 526.916 82.6906 529.789 86.5218 532.663 90.353 536.175 92.0967 542.069 90.7705 545.274 89.8208 548.383 88.571 551.352 87.0375 547.953 93.3799 541.357 97.3558 534.161 97.4015 531.248 97.1456 528.603 95.6062 526.941 93.2019 522.856 87.8804 519.32 82.1623 516.38 76.1333 514.435 71.6483 513.465 66.8016 513.531 61.9136 513.531 58.2788 512.524 54.7177 512.917 51.083 513.421 45.5901 516.068 40.5167 520.285 36.9615 520.678 36.7549 521.1 36.6059 521.538 36.5194Z" fill="#D8D8D8" fill-rule="nonzero" fill-opacity="1" transform="matrix(1 0 0 1.00142 239.115 168.064)"/><path d="M533.596 202.515C537.648 202.981 541.627 201.95 545.655 201.999 547.168 202.097 548.685 202.097 550.198 201.999 552.531 201.489 554.847 202.924 555.429 205.241L554.299 205.437C550.127 205.791 546.008 206.615 542.02 207.893 535.438 209.489 528.856 211.159 522.373 212.805 520.037 213.202 517.66 213.293 515.3 213.075 514.487 213.048 513.693 212.821 512.991 212.412 512.76 210.281 512.333 208.177 511.714 206.125 511.478 205.127 511.363 204.105 511.37 203.079 513.949 203.26 516.54 203.194 519.106 202.883 522.923 202.596 526.749 202.506 530.575 202.613 531.509 202.588 532.565 202.539 533.596 202.515Z" fill="#AAFFF0" fill-rule="nonzero" fill-opacity="1" transform="matrix(1 0 0 1.00142 239.115 168.064)"/><path d="M565.867 100.25C564.209 102.839 562.362 105.302 560.341 107.618 559.653 108.404 558.769 109.043 558.131 109.878 555.046 113.602 550.652 116.002 545.851 116.582 541.742 117.44 537.477 116.228 534.431 113.34 531.445 110.395 528.832 107.096 526.646 103.517 525.73 101.6 524.386 99.9191 522.716 98.6049 522.152 98.2611 521.611 97.6716 522.053 96.9349 522.495 96.1981 523.208 96.4682 523.822 96.7384 526.012 97.9307 527.982 99.4927 529.642 101.356 532.533 104.277 535.917 106.663 539.638 108.404 541.747 109.316 544.051 109.696 546.342 109.509 552.865 109.053 558.988 106.201 563.534 101.503 564.121 100.799 564.956 100.35 565.867 100.25Z" fill="#D9D8D8" fill-rule="nonzero" fill-opacity="1" transform="matrix(1 0 0 1.00142 239.115 168.064)"/><path d="M449.432 166.118C449.555 165.136 450.292 164.988 450.881 164.792 454.484 163.215 458.671 163.835 461.662 166.388 465.103 169.047 466.646 173.491 465.592 177.71 464.094 183.702 460.312 187.067 454.319 186.527 450.702 186.234 447.499 184.074 445.871 180.829 445.542 180.249 445.286 179.63 445.11 178.987 444.717 177.317 443.243 175.696 444.962 173.928 446.797 171.401 449.776 169.962 452.895 170.097 455.267 170.361 456.977 172.499 456.711 174.872 456.62 175.696 456.291 176.477 455.768 177.12 455.007 178.226 453.975 178.545 453.091 177.906 452.207 177.268 452.256 176.31 453.091 175.45 453.293 175.251 453.46 175.019 453.582 174.763 454.135 173.914 453.988 172.79 453.239 172.11 452.379 171.349 451.495 171.644 450.635 172.11 448.342 173.804 447.477 176.827 448.523 179.478 449.805 181.934 452.566 183.238 455.277 182.671 458.433 182.005 460.508 178.978 459.992 175.794 459.408 172.963 458.057 170.347 456.088 168.23 455.351 167.462 454.386 166.953 453.337 166.781Z" fill="#86CFC2" fill-rule="nonzero" fill-opacity="1" transform="matrix(1 0 0 1.00142 239.115 168.064)"/><path d="M491.183 216.489C490.64 217.295 490.35 218.243 490.348 219.215 489.932 218.092 488.727 217.474 487.572 217.79 485.944 218.014 484.304 218.113 482.66 218.085 476.815 218.085 470.995 218.601 465.199 219.141L464.339 219.141C457.537 218.945 450.758 219.681 443.955 219.829 439.044 219.829 434.132 220.173 429.343 220.32 428.289 220.489 427.208 220.252 426.322 219.657 426.027 219.387 425.757 219.067 425.978 218.674 426.093 218.424 426.322 218.242 426.592 218.183 427.255 218.183 427.918 218.06 428.581 218.011 441.205 217.275 453.853 217.447 466.501 217.422 471.29 217.422 476.03 216.98 480.794 216.513 484.252 216.245 487.725 216.237 491.183 216.489Z" fill="#87D1C4" fill-rule="nonzero" fill-opacity="1" transform="matrix(1 0 0 1.00142 239.115 168.064)"/><path d="M515.177 213.05C524.116 211.307 532.761 208.458 541.701 206.739 544.721 206.174 547.693 205.511 550.714 204.97 551.925 204.624 553.226 204.803 554.299 205.462 551.117 206.765 547.831 207.8 544.476 208.556 539.228 210.35 533.891 211.875 528.488 213.124 524.114 214.21 519.539 214.185 515.177 213.05Z" fill="#86CDC0" fill-rule="nonzero" fill-opacity="1" transform="matrix(1 0 0 1.00142 239.115 168.064)"/></g></g></g></g></svg>