<svg 
          width="12.75973129272461" 
          height="12.75973129272461" fill="none" 
          xmlns="http://www.w3.org/2000/svg">
          <path d="M 10.069472403413421 9.181303892362052 L 12.75973129272461 11.870935001685043 L 11.870935001685043 12.75973129272461 L 9.181303892362052 10.069472403413421 C 8.180536331328202 10.871726931802696 6.935757188321424 11.308075317980377 5.65312524823044 11.30625049646088 C 2.5326001519410535 11.30625049646088 0 8.773650344519826 0 5.65312524823044 C 0 2.5326001519410535 2.5326001519410535 0 5.65312524823044 0 C 8.773650344519826 0 11.30625049646088 2.5326001519410535 11.30625049646088 5.65312524823044 C 11.308075317980377 6.935757188321424 10.871726931802696 8.180536331328202 10.069472403413421 9.181303892362052 Z M 8.809453272215086 8.715234757688595 C 9.60661487554743 7.895459746436895 10.051801281421506 6.796582468270792 10.05000044129856 5.65312524823044 C 10.050000441298561 3.2235376223776586 8.08208479458167 1.25625005516232 5.65312524823044 1.25625005516232 C 3.2235376223776586 1.25625005516232 1.25625005516232 3.2235376223776586 1.25625005516232 5.65312524823044 C 1.25625005516232 8.08208479458167 3.2235376223776586 10.05000044129856 5.65312524823044 10.05000044129856 C 6.796582468270792 10.051801281421506 7.895459746436895 9.60661487554743 8.715234757688595 8.809453272215086 L 8.809453272215086 8.715234757688595 L 8.809453272215086 8.715234757688595 Z" fill="rgb(37.00000159442425,36.00000165402889,93.00000205636024)"/>
        </svg>