<svg width="272" height="398" xmlns="http://www.w3.org/2000/svg" xmlns:xlink="http://www.w3.org/1999/xlink" xml:space="preserve" overflow="hidden"><defs><clipPath id="clip0"><rect x="932" y="294" width="272" height="398"/></clipPath><clipPath id="clip1"><rect x="932" y="295" width="271" height="397"/></clipPath><clipPath id="clip2"><rect x="932" y="295" width="271" height="397"/></clipPath><clipPath id="clip3"><rect x="932" y="295" width="271" height="397"/></clipPath></defs><g clip-path="url(#clip0)" transform="translate(-932 -294)"><g clip-path="url(#clip1)"><g clip-path="url(#clip2)"><g clip-path="url(#clip3)"><path d="M326.601 212.967C327.066 213.793 327.134 214.783 326.788 215.665 325.957 219.966 324.075 223.994 321.308 227.392 320.995 227.797 320.702 228.22 320.437 228.658 321.038 229.841 320.187 230.609 319.586 231.418 314.808 237.448 308.282 241.854 300.906 244.037 293.227 246.59 285.257 248.188 277.515 250.451 276.683 250.619 275.921 251.04 275.336 251.654 272.472 253.502 269.255 254.643 266.266 256.2 265.28 256.679 264.354 257.271 263.506 257.964 260.349 259.357 257.283 260.951 254.332 262.738 247.51 266.417 240.544 269.815 233.432 272.928 232.56 273.316 231.732 273.796 230.962 274.36 229.893 274.991 229.364 276.247 229.654 277.453 230.169 279.562 229.866 281.787 228.803 283.679 227.911 285.195 229.82 289.698 231.875 290.736 234.884 292.43 237.118 295.23 238.101 298.54 240.895 305.696 243.319 312.99 245.366 320.395 246.341 323.967 247.649 327.441 249.268 330.772 250.928 334.239 252.36 337.705 250.783 341.669 250.202 343.122 251.343 344.222 252.09 345.405 253.128 346.961 255.204 348.144 254.373 350.552 249.288 353.707 245.386 358.543 239.7 360.93 236.628 362.175 235.549 361.469 235.549 358.231 235.673 356.156 234.739 354.371 234.739 352.399 235.065 351.596 235.221 350.735 235.196 349.867 235.196 348.144 234.801 347.563 233.12 347.107 231.207 346.569 229.586 345.293 228.616 343.558 224.569 337.331 220.418 331.105 215.831 325.355 213.548 322.429 211.161 319.586 208.837 316.701 204.203 310.381 200.041 303.729 196.384 296.797 194.49 293.806 192.99 290.583 191.922 287.208 190.119 281.334 189.415 275.176 189.846 269.047 190.455 263.732 193.196 258.894 197.442 255.639 204.53 249.712 212.12 244.413 220.128 239.803 231.896 233.099 243.685 226.416 255.411 219.567 260.955 216.4 266.28 212.863 271.351 208.982 272.306 208.235 273.323 207.612 274.319 206.907 274.454 206.666 274.678 206.487 274.942 206.409 276.004 206.088 277.115 205.961 278.221 206.035 278.387 206.035 278.574 206.035 278.698 206.222 284.613 211.348 291.608 212.448 299.121 211.784 299.974 211.709 300.835 211.801 301.653 212.054 303.044 212.635 304.621 212.386 305.991 213.05 308.467 213.231 310.908 213.733 313.255 214.544 316.528 215.655 320.129 215.227 323.052 213.382 324.131 212.76 325.293 211.95 326.601 212.967Z" fill="#545231" fill-rule="nonzero" fill-opacity="1" transform="matrix(1.00293 0 0 1 854.961 287.174)"/><path d="M326.601 212.967 320.852 215.852C319.212 216.67 317.329 216.861 315.559 216.392 312.301 215.603 309.063 214.752 305.825 213.943 304.621 213.424 304.746 212.51 305.099 211.577 308.316 203.275 309.25 194.433 311.325 185.861 311.885 183.474 313.172 181.233 312.861 178.68 317.427 173.989 319.544 167.7 323.446 162.574 325.482 160.391 327.29 158.005 328.842 155.455 327.576 154.895 325.688 155.642 325.355 153.836 325.2 152.488 325.333 151.122 325.75 149.83 326.491 147.362 327.059 144.844 327.452 142.296 327.531 141.081 327.971 139.917 328.718 138.955 330.372 136.832 331.078 134.122 330.669 131.462 330.274 126.523 329.859 121.541 327.327 117.079 327.327 117.079 327.327 117.183 327.327 117.204 330.181 123.032 331.175 129.596 330.171 136.008 330.171 136.589 330.171 137.336 329.34 137.377 328.905 137.377 328.676 136.9 328.697 137.045 329.008 138.249 328.033 139.764 327.597 141.404 326.262 145.938 325.401 150.598 325.023 155.31 324.803 157.547 324.162 159.723 323.135 161.723 319.519 170.315 314.073 178.014 307.174 184.284 304.36 186.616 300.862 187.97 297.212 188.144 290.612 188.684 284.095 190.22 277.411 189.68 275.855 189.555 274.9 190.033 275.066 191.755 275.081 193.924 274.56 196.062 273.551 197.982 272.503 199.999 272.503 202.399 273.551 204.416 273.925 205.122 274.63 206.242 272.866 206.326 269.794 205.931 268.923 204.105 269.566 200.867 269.892 199.707 270.373 198.597 270.998 197.567 271.793 196.129 272.486 194.638 273.074 193.105 273.759 191.029 273.074 190.178 270.998 190.012 266.723 189.701 262.489 189.016 258.255 188.289 257.318 188.154 256.368 188.154 255.432 188.289 251.92 188.834 248.325 188.237 245.179 186.587 242.647 183.101 242.896 179.053 243.228 175.131 243.415 172.682 243.228 169.921 245.303 167.97 250.229 167.943 255.102 166.978 259.666 165.127 260.318 164.829 261.059 164.784 261.741 165.002 266.723 166.497 271.434 165.002 276.27 163.674 277.183 163.404 278.055 163.072 278.989 162.885 281.334 162.271 283.779 163.449 284.759 165.666 285.651 167.451 286.212 169.34 286.834 171.187 286.425 169.553 285.825 167.971 285.049 166.476 284.261 165.16 284.572 163.462 285.776 162.512 287.249 161.412 288.515 162.18 289.719 163.197 290.516 164.121 291.454 164.913 292.5 165.542 292.303 164.247 291.61 163.079 290.57 162.283 288.7 160.71 288.283 157.995 289.595 155.932 290.497 154.247 290.9 152.339 290.757 150.432 290.524 147.319 291.367 144.22 293.144 141.653 293.978 140.141 294.495 138.474 294.659 136.755 297.191 125.422 298.81 121.438 304.434 114.754 299.142 120.13 296.298 128.1 294.68 136.692 294.447 138.823 293.739 140.873 292.604 142.691 291.5 144.46 290.865 146.482 290.757 148.564 290.342 152.207 288.59 155.565 285.838 157.987 285.195 158.568 284.51 159.212 283.555 158.817 282.6 158.423 283.223 157.344 283.202 156.555 283.341 149.745 285.014 143.055 288.1 136.983 289.553 133.828 289.221 130.238 289.698 126.834 289.947 125.049 290.404 123.326 290.57 121.956 289.767 125.464 289.26 129.032 289.055 132.624 288.812 135.201 288.065 137.705 286.855 139.993 284.032 145.077 283.493 150.702 282.911 156.347 282.787 157.385 283.451 159.606 281.002 159.544 281.044 157.905 280.94 156.266 280.691 154.646 280.267 151.438 280.817 148.177 282.268 145.285 283.327 143.21 284.344 140.968 285.547 138.851 286.307 137.5 286.654 135.956 286.544 134.409 286.398 132.084 286.73 129.753 287.519 127.56 288.549 124.611 288.598 121.409 287.664 118.428 286.973 116.532 287.226 114.419 288.349 112.741 288.957 111.8 289.02 110.607 288.515 109.607 287.872 107.822 287.312 106.017 286.71 104.232 287.893 103.858 288.204 104.813 288.598 105.518 289.433 107.094 290.128 108.74 290.674 110.437 291.276 112.243 292.251 112.513 293.766 111.413 295.769 109.912 297.544 108.129 299.038 106.12 301.244 103.591 303.708 101.296 306.385 99.2712 307.61 98.1919 308.627 98.7108 309.312 99.9769 310.308 101.783 311.18 103.671 312.114 105.518 311.221 103.692 310.35 101.845 309.374 100.081 308.025 97.59 308.025 97.4655 310.453 95.9296 310.81 95.7007 311.138 95.4288 311.429 95.1202 305.887 100.267 298.976 103.817 294.576 110.313 293.123 112.388 291.483 112.119 290.425 109.732 289.844 108.383 289.283 107.034 288.578 105.747 288.121 104.937 287.768 103.983 286.502 104.066 285.485 103.09 286.502 102.509 286.938 101.803 286.419 100.745 286.938 100.018 287.623 99.2504 291.857 94.0156 297.241 89.8256 303.355 87.005 304.428 86.4469 305.684 86.3641 306.821 86.7767L307.174 86.7767C308.751 86.4238 310.474 85.137 311.885 86.0295 313.888 87.0729 315.545 88.6731 316.659 90.6371 316.97 91.4426 317.747 91.9714 318.61 91.9654 319.567 92.0796 320.447 92.5455 321.08 93.273 327.057 99.375 332.952 105.539 336.791 113.343 338.226 116.198 339.353 119.196 340.154 122.288 341.314 126.445 342.196 130.675 342.79 134.949 343.053 137.958 342.9 140.99 342.333 143.957 341.129 151.802 339.324 159.523 337.808 167.306 336.082 175.055 335.32 182.989 335.546 190.925 336.003 196.059 334.668 201.193 331.769 205.454 330.185 208.05 328.458 210.56 326.601 212.967Z" fill="#F7F4AD" fill-rule="nonzero" fill-opacity="1" transform="matrix(1.00293 0 0 1 854.961 287.174)"/><path d="M236.379 201.552C236.296 202.679 235.91 203.762 235.258 204.686 234.581 205.894 234.085 207.195 233.784 208.546 233.519 210.103 232.392 211.375 230.879 211.826 225.235 213.997 219.389 215.588 213.424 216.578 206.305 217.928 199.124 218.924 191.922 219.609 186.109 220.327 180.261 220.715 174.404 220.771 171.976 220.771 169.61 221.456 167.182 221.331 166.364 221.215 165.609 221.786 165.493 222.602 165.481 222.691 165.476 222.778 165.48 222.867 165.2 224.571 165.012 226.29 164.919 228.014 164.919 231.211 164.919 234.407 164.919 237.583 164.919 246.985 164.483 256.387 164.255 265.768 164.089 271.808 164.255 277.868 163.798 283.866 163.342 289.864 163.798 296.319 163.28 302.546 162.802 308.253 163.28 313.961 162.761 319.606 162.242 325.252 162.761 330.316 162.263 335.629 161.702 342.001 162.263 348.414 161.702 354.745 161.204 360.701 161.515 366.658 161.266 372.594 161.132 374.765 161.977 376.882 163.57 378.364 165.819 380.641 168.51 382.436 171.478 383.635 180.187 387.438 189.366 390.055 198.771 391.419 203.219 392.035 207.608 393.027 211.888 394.387 213.361 394.843 214.96 395.321 215.084 397.272 215.084 398.621 214.171 399.721 211.929 400.177 208.048 400.966 204.125 401.651 200.203 402.128 194.308 402.855 188.352 402.938 182.416 403.311 172.868 403.934 163.321 404.307 153.753 404.287 151.446 404.573 149.125 404.725 146.8 404.743 141.03 404.038 135.24 404.577 129.49 404.162 119.845 403.737 110.251 402.514 100.807 400.509 98.8486 400.163 96.9529 399.528 95.1825 398.621 93.107 397.355 93.107 396.026 95.1825 394.822 98.1656 393.453 101.311 392.469 104.543 391.896 112.99 389.821 121.728 388.949 130.113 386.541 136.859 384.611 143.376 381.996 147.527 375.728 149.744 372.828 150.927 369.271 150.889 365.62 150.795 363.983 150.795 362.339 150.889 360.701 151.47 349.411 151.013 338.099 151.532 326.829 151.968 317.24 151.408 307.672 152.01 298.125 152.549 289.491 152.01 280.857 152.529 272.264 153.047 264.751 152.529 257.238 153.027 249.766 153.483 243.207 153.359 236.669 153.483 230.111 153.483 228.305 154.064 226.562 154.002 224.714 154.002 221.746 153.649 221.394 150.744 221.373 146.593 221.373 142.276 221.373 138.062 221.373 132.977 221.207 127.913 220.833 122.849 220.48 116.622 220.045 110.5 219.214 104.356 218.405 97.6826 217.548 91.134 215.902 84.8465 213.507 82.3519 212.83 80.5348 210.682 80.2804 208.11 80.1425 206.986 79.7368 205.911 79.0973 204.976 78.5417 204.318 78.451 203.385 78.869 202.631 79.637 201.676 80.5709 201.946 81.4634 202.32 91.6956 206.699 102.633 207.82 113.509 209.024 131.948 210.96 150.497 211.653 169.029 211.099 185.406 211.014 201.75 209.628 217.907 206.948 223.465 206.116 228.859 204.414 233.888 201.905 234.718 201.49 235.486 201.054 236.379 201.552Z" fill="#858383" fill-rule="nonzero" fill-opacity="1" transform="matrix(1.00293 0 0 1 854.961 287.174)"/><path d="M239.035 57.4914C237.998 57.4914 236.96 57.6367 235.922 57.6782 230.742 58.2744 226.057 54.5576 225.462 49.3764 225.424 49.0524 225.404 48.7267 225.399 48.4007 225.161 43.1021 226.551 37.8577 229.384 33.374 232.711 27.8142 237.116 22.9739 242.335 19.1361 247.225 15.102 252.871 12.0822 258.939 10.253 276.477 5.37555 292.708 7.92841 306.676 19.9456 316.555 27.799 321.072 40.6126 318.299 52.9253 316.223 63.116 310.101 70.5878 301.487 76.1501L299.142 77.7482C298.146 79.0351 297.066 78.5992 295.925 77.9558 293.955 76.7047 292.214 75.1252 290.778 73.2859 289.918 72.3646 289.831 70.9649 290.57 69.9444 292.23 67.2255 291.981 64.1122 292.044 61.1442 292.066 59.1472 290.614 57.4384 288.64 57.1385 286.629 57.0999 284.881 58.5079 284.489 60.4801 282.995 65.2122 282.413 65.3783 279.072 61.8292 270.977 53.5272 261.202 52.5517 250.658 55.3328 246.839 56.3498 243.207 58.3423 239.035 57.4914Z" fill="#000000" fill-rule="nonzero" fill-opacity="1" transform="matrix(1.00293 0 0 1 854.961 287.174)"/><path d="M126.004 187.189C126.071 186.067 125.811 184.95 125.256 183.972 121.728 176.563 118.179 169.195 114.734 161.744 109.794 151.034 104.937 140.262 100.039 129.511 99.2504 127.789 98.3787 126.087 97.6731 124.343 96.7806 122.268 97.4863 120.877 99.7486 120.379 101.876 119.995 104.055 119.995 106.183 120.379 113.779 121.396 121.375 122.455 129.013 123.389 134.548 123.865 139.403 127.271 141.736 132.313 145.368 139.66 148.523 147.215 151.968 154.666 155.413 162.117 158.547 169.195 161.827 176.604 162.387 177.85 163.051 178.929 164.649 178.68 171.229 178.036 177.102 180.755 183.329 182.208 185.404 182.686 187.293 183.35 189.286 183.91 190.223 184.56 191.397 184.772 192.503 184.491 193.374 184.304 194.288 184.201 194.786 185.155 195.242 186.047 194.924 187.14 194.059 187.646 193.437 188.144 193.042 188.829 192.42 189.286 191.05 190.054 189.742 189.41 188.435 189.016 182.208 187.086 175.982 185.301 169.755 183.308 169.091 183.101 168.427 182.955 167.68 182.81 166.351 182.54 165.812 183.142 166.289 184.367 167.239 186.954 168.478 189.426 169.983 191.735 170.771 192.675 171.986 193.145 173.201 192.98 182.084 193.312 190.905 192.15 199.767 192.44 200.779 192.569 201.704 191.853 201.832 190.841 201.837 190.807 201.84 190.773 201.842 190.738 203.918 189.244 205.744 187.646 208.463 189.016 211.618 189.784 214.69 191.091 217.824 191.569 217.89 191.448 218.042 191.405 218.162 191.471 218.204 191.494 218.237 191.528 218.26 191.569 218.698 191.939 219.268 192.111 219.837 192.046 220.03 191.852 220.196 191.852 220.335 192.046 220.775 192.409 221.346 192.574 221.913 192.503 225.026 192.503 226.914 193.582 227.039 195.512 227.039 198.215 224.885 200.426 222.182 200.493 213.071 200.971 203.959 201.614 194.848 202.216 185.737 202.818 176.168 203.191 166.746 204.001 164.414 203.896 162.136 203.264 160.083 202.154 149.706 198.335 139.328 194.599 128.951 190.676 127.477 190.282 125.506 189.701 126.004 187.189Z" fill="#3F4F6D" fill-rule="nonzero" fill-opacity="1" transform="matrix(1.00293 0 0 1 854.961 287.174)"/><path d="M239.035 57.4914C243.643 56.4536 248.002 54.3781 252.609 53.4441 263.173 51.3686 272.845 52.9875 280.504 61.3933 281.127 62.0782 281.583 62.9707 282.579 63.3235 283.347 62.8669 283.036 62.099 283.078 61.4763 283.119 60.3526 283.432 59.2557 283.991 58.2801 285.076 56.454 287.131 55.4314 289.242 55.6649 291.46 56.4731 293.054 58.4345 293.393 60.7707 293.58 63.448 292.729 66.0424 292.729 68.7198 292.666 69.3369 292.351 69.9006 291.857 70.2765 290.757 71.2312 290.881 72.0199 291.857 73.0369 293.11 74.3428 294.464 75.5501 295.904 76.6482 296.776 77.3626 297.87 77.7516 298.997 77.7482 299.991 79.5255 301.282 81.1191 302.816 82.4596 304.322 83.7141 305.713 85.1034 306.967 86.6106 306.365 86.922 305.783 87.2956 305.161 87.5446 298.754 90.135 293.137 94.3566 288.868 99.7901 288.306 100.436 287.71 101.053 287.083 101.637 285.651 101.637 284.779 100.537 283.762 99.7901 283.169 99.1846 282.195 99.1755 281.591 99.7695 281.49 99.8679 281.405 99.9796 281.334 100.101 275.481 107.407 266.038 106.847 259.022 102.862 256.897 101.402 254.948 99.7029 253.211 97.7976 251.75 96.3329 249.921 95.2864 247.919 94.7673 244.577 93.9579 243.581 91.9032 244.93 88.7484 246.229 86.3093 246.902 83.5839 246.881 80.82 246.85 78.1196 245.797 75.531 243.934 73.5765 242.79 72.4175 242.105 70.8842 242.003 69.2595 241.568 66.0009 241.858 62.7216 241.235 59.4631 240.924 58.114 240.343 57.4914 239.035 57.4914Z" fill="#5B422C" fill-rule="nonzero" fill-opacity="1" transform="matrix(1.00293 0 0 1 854.961 287.174)"/><path d="M126.004 187.189C126.916 188.564 128.319 189.536 129.926 189.908L157.344 199.974 157.842 200.141C166.04 203.191 166.04 203.129 174.342 202.507 182.644 201.884 190.946 201.469 199.103 200.95 206.844 200.473 214.565 199.933 222.307 199.456 223.444 199.418 224.501 198.86 225.171 197.94 226.296 196.912 226.375 195.166 225.347 194.041 224.91 193.562 224.318 193.253 223.677 193.167 223.096 192.98 222.514 192.876 221.913 192.731 222.245 192.731 222.597 192.357 222.867 192.42 226.968 193.06 230.912 194.468 234.49 196.571 236.364 197.406 237.207 199.602 236.37 201.476 236.354 201.516 236.335 201.555 236.316 201.593 233.473 203.862 230.152 205.459 226.603 206.263 218.617 208.382 210.454 209.771 202.216 210.414 194.329 211.161 186.421 211.597 178.514 212.033 166.538 212.718 154.563 212.531 142.587 212.282 135.821 212.137 129.013 211.639 122.247 211.058 115.481 210.477 108.694 209.771 101.969 208.795 96.0699 208.061 90.2531 206.767 84.5974 204.935 82.7087 204.292 80.9445 203.399 78.869 202.631 78.703 202.424 78.5577 202.216 78.3917 202.029 75.9426 199.227 76.3162 197.359 79.4086 195.388 80.7486 194.616 82.1869 194.03 83.6842 193.644 92.5989 191.016 101.757 189.298 111.019 188.518 116.062 187.978 121.022 187.625 126.004 187.189Z" fill="#AAAAAA" fill-rule="nonzero" fill-opacity="1" transform="matrix(1.00293 0 0 1 854.961 287.174)"/><path d="M274.713 250.762C277.567 249.151 280.645 247.977 283.845 247.275 289.91 245.972 295.898 244.33 301.778 242.356 307.745 240.513 313.079 237.041 317.178 232.332 318.236 231.086 319.357 229.882 320.437 228.658 326.636 228.407 332.842 228.888 338.929 230.09 344.342 231.256 347.783 236.59 346.615 242.003 346.546 242.325 346.461 242.645 346.36 242.958 346.235 243.641 345.884 244.264 345.363 244.722 341.939 248.188 337.414 249.06 332.91 249.932 325.063 251.069 317.155 251.762 309.229 252.007 304.414 252.381 299.599 252.609 294.7 252.837 288.679 253.163 282.642 253.01 276.643 252.381 275.751 252.36 274.609 252.256 274.713 250.762Z" fill="#E4E4E4" fill-rule="nonzero" fill-opacity="1" transform="matrix(1.00293 0 0 1 854.961 287.174)"/><path d="M260.766 362.714 260.953 363.711C261.243 365.786 261.223 365.786 259.375 366.865 258.794 367.177 258.213 367.55 257.653 367.924L249.351 371.494C248.413 372.135 247.202 372.231 246.175 371.743 245.187 371.295 244.019 371.683 243.498 372.635 240.758 376.911 236.524 377.907 231.875 378.26 226.894 378.613 221.913 379.132 216.952 379.609 214.281 379.925 211.574 379.648 209.024 378.8 206.699 377.969 206.367 376.724 207.55 374.649 209.256 371.525 211.971 369.074 215.25 367.696 218.353 366.191 221.36 364.499 224.258 362.631 225.646 361.751 226.852 360.608 227.807 359.269 228.845 357.879 229.882 356.509 230.982 355.118 231.927 353.759 233.301 352.758 234.884 352.275 236.321 353.14 237.128 354.757 236.96 356.426 236.96 357.277 236.96 358.148 236.835 358.999 236.835 360.348 237.022 360.514 238.33 360.037 241.092 359.035 243.624 357.488 245.781 355.492 247.503 353.935 249.434 352.648 251.239 351.195 252.053 350.544 253.043 350.145 254.083 350.054 255.162 349.244 256.034 349.805 256.822 350.552 258.894 352.503 260.401 354.977 261.181 357.713 261.496 358.615 261.422 359.607 260.973 360.452 260.415 361.079 260.33 361.996 260.766 362.714Z" fill="#5A2E07" fill-rule="nonzero" fill-opacity="1" transform="matrix(1.00293 0 0 1 854.961 287.174)"/><path d="M192.337 188.642C192.337 187.418 193.603 186.857 194.122 185.716 193.291 185.28 192.669 185.965 192.046 186.089 189.971 186.504 189.659 186.276 189.306 184.014 193.634 179.851 198.638 176.454 204.105 173.968 202.714 173.678 201.78 174.529 200.722 174.985 199.757 175.555 198.705 175.962 197.608 176.189 196.363 176.189 195.782 175.484 196.322 174.404 196.613 173.874 197 173.402 197.463 173.014 200.295 170.199 203.997 168.429 207.965 167.991 210.809 167.783 213.611 167.348 216.433 167.057 218.963 166.956 221.456 167.685 223.531 169.133 226.514 170.875 229.86 171.899 233.307 172.121 234.656 175.338 233.95 178.742 234.158 182.063 234.158 182.478 233.722 182.769 233.349 182.976 232.031 183.404 230.818 184.112 229.799 185.052 227.988 186.679 225.584 187.483 223.158 187.272 219.908 186.988 216.632 187.142 213.424 187.729 211.718 187.895 210.059 188.395 208.546 189.203L202.32 191.403C199.974 193.291 198.273 192.752 197.048 189.68 193.914 190.738 193.167 190.593 192.337 188.642Z" fill="#5B422C" fill-rule="nonzero" fill-opacity="1" transform="matrix(1.00293 0 0 1 854.961 287.174)"/><path d="M274.713 250.762C274.921 250.886 275.149 251.115 275.377 251.115 279.043 251.515 282.731 251.69 286.419 251.634 287.002 251.493 287.604 251.428 288.204 251.447 292.853 252.402 297.481 251.447 302.089 251.219 306.012 251.073 309.976 250.928 313.899 250.451 317.219 250.056 320.603 250.139 323.944 249.807 330.482 249.523 336.91 248.016 342.893 245.366 343.647 244.938 344.498 244.716 345.363 244.722 345.363 244.971 345.363 245.303 345.592 245.449 347.958 247.69 347.314 249.911 344.139 251.945 341.31 253.618 338.203 254.764 334.965 255.328 326.431 257.121 317.74 258.059 309.021 258.13 303.984 258.566 298.926 258.732 293.87 258.628 293.121 259.489 291.994 259.925 290.861 259.79 282.351 259.863 273.844 259.489 265.374 258.67 264.19 258.67 262.904 258.317 262.987 256.594Z" fill="#BEBEBE" fill-rule="nonzero" fill-opacity="1" transform="matrix(1.00293 0 0 1 854.961 287.174)"/><path d="M326.02 115.107C327.02 115.787 327.753 116.792 328.095 117.951 330.658 123.63 331.532 129.928 330.606 136.091 330.596 136.437 330.534 136.78 330.42 137.108 328.489 141.259 328.344 145.804 326.663 149.913 326.538 150.245 326.455 150.578 326.352 150.91 326.082 151.906 325.501 153.172 326.248 153.857 326.995 154.542 328.033 153.442 328.905 153.027 329.444 152.778 330.005 152.342 330.586 152.798 331.167 153.255 330.98 154.064 330.689 154.687 329.531 157.102 328.006 159.322 326.165 161.266 323.695 163.892 321.676 166.907 320.187 170.191 318.608 173.347 316.551 176.238 314.085 178.763 312.529 180.444 312.736 183.204 310.557 184.512 308.318 187.345 305.337 189.501 301.944 190.738 299.096 191.731 296.116 192.291 293.102 192.399 288.515 192.399 283.949 192.503 279.383 192.399 277.905 192.147 276.471 193.038 276.042 194.474 275.355 196.432 274.842 198.446 274.506 200.493 274.288 201.786 274.587 203.113 275.336 204.188 275.813 204.893 276.394 205.599 276 206.554 275.709 206.948 275.315 206.927 274.879 206.886L274.319 206.886 272.866 206.388C273.426 205.89 273.011 205.475 272.866 205.018 271.65 202.882 271.55 200.289 272.596 198.065 273.105 196.787 273.547 195.485 273.925 194.163 274.454 192.967 274.454 191.603 273.925 190.406 273.385 189.369 274.049 188.954 274.921 188.85 275.793 188.746 276.809 188.725 277.764 188.684 284.323 188.518 290.778 187.376 297.295 186.899 303.189 186.463 307.402 183.163 311.035 178.991 315.339 173.926 318.921 168.289 321.682 162.242 323.535 158.151 324.619 153.753 324.878 149.27 325.227 145.403 326.179 141.614 327.701 138.042 328.157 136.921 328.531 135.779 328.946 134.638 329.61 135.136 328.946 136.008 329.548 136.485 330.314 134.504 330.53 132.352 330.171 130.258 330.088 125.498 328.88 120.825 326.642 116.622 326.418 116.162 326.258 115.673 326.165 115.17Z" fill="#CAC25C" fill-rule="nonzero" fill-opacity="1" transform="matrix(1.00293 0 0 1 854.961 287.174)"/><path d="M281.002 159.627C282.44 158.079 283.123 155.976 282.87 153.878 282.642 148.461 284.738 143.77 286.876 139.059 287.822 137.021 288.418 134.839 288.64 132.604 288.856 128.906 289.383 125.233 290.217 121.624 290.402 120.604 290.5 119.569 290.508 118.532 291.189 119.457 291.402 120.644 291.089 121.749 290.176 126.232 289.615 130.757 289.138 135.302 288.758 137.173 288.057 138.964 287.062 140.594 285.747 143.126 284.769 145.819 284.157 148.606 283.534 151.698 284.053 154.832 283.285 158.029 285.998 156.419 287.94 153.774 288.661 150.702 289.524 147.28 290.649 143.928 292.023 140.677 293.725 136.153 295.012 131.483 296.485 126.896 298.328 121.405 301.444 116.426 305.576 112.368 306.385 111.537 306.406 111.558 308.461 110.832 306.385 113.26 304.683 115.543 302.795 117.722 301.855 118.739 301.047 119.868 300.387 121.085 297.712 126.013 296.014 131.411 295.385 136.983 295.445 139.259 294.663 141.477 293.185 143.21 292.22 144.462 291.768 146.035 291.919 147.61 291.919 151.159 292.127 154.687 289.989 157.842 289.325 158.797 289.989 159.917 290.653 160.665 291.317 161.412 292.521 162.906 293.434 164.068 293.988 164.735 294.335 165.551 294.431 166.414 294.431 167.099 294.597 167.866 293.849 168.261 293.102 168.655 292.355 168.261 291.774 167.659 291.193 167.057 290.798 166.455 290.28 165.895 289.559 164.917 288.665 164.08 287.644 163.425 286.419 162.823 285.568 163.425 285.568 164.732 285.703 165.67 286.052 166.565 286.585 167.348 287.776 169.373 288.339 171.706 288.204 174.051 288.204 174.55 288.204 175.214 287.685 175.38 287.166 175.546 286.585 174.965 286.336 174.446 285.838 173.346 285.423 172.204 285.028 171.063 284.634 169.921 284.178 168.448 283.742 167.14 283.192 165.153 281.361 163.794 279.3 163.84 278.179 163.84 277.059 163.84 275.938 163.84Z" fill="#CAC25C" fill-rule="nonzero" fill-opacity="1" transform="matrix(1.00293 0 0 1 854.961 287.174)"/><path d="M233.328 182.935C232.682 179.83 232.52 176.645 232.85 173.491 232.971 173.013 233.116 172.542 233.286 172.08 234.332 169.536 236.95 168.006 239.679 168.344 241.194 168.344 242.73 168.116 244.245 167.991 244.805 170.067 243.539 171.851 243.269 173.823 242.744 177.382 242.941 181.01 243.851 184.491 244.12 185.487 244.286 186.297 243.332 186.961 241.368 187.221 239.38 187.221 237.417 186.961 234.822 186.774 234.449 186.421 233.701 183.889 233.598 183.557 233.452 183.246 233.328 182.935Z" fill="#F7F4AD" fill-rule="nonzero" fill-opacity="1" transform="matrix(1.00293 0 0 1 854.961 287.174)"/><path d="M286.627 103.92C287.229 103.069 287.789 103.422 288.308 103.92 289.236 105.097 289.997 106.396 290.57 107.781 292.459 111.475 292.521 111.371 294.597 108.217 296.481 105.643 298.766 103.387 301.363 101.533 305.18 98.3185 309.237 95.4041 313.504 92.8164 313.816 92.6503 314.065 92.4013 314.48 92.4843 315.019 93.0654 314.48 93.4183 314.148 93.7296 312.882 94.9126 311.636 96.0749 310.308 97.1749 309.476 97.6573 309.189 98.7239 309.673 99.5572 309.725 99.6469 309.785 99.7317 309.851 99.8108 311.228 102.096 312.382 104.507 313.297 107.013 313.442 107.407 313.733 107.801 313.152 108.362 312.197 106.411 311.284 104.501 310.37 102.613 310.017 101.928 309.685 101.222 309.27 100.537 308.44 99.1882 308.129 99.1674 306.904 100.247 303.577 103.239 300.425 106.419 297.461 109.773 296.581 110.838 295.562 111.78 294.431 112.575 292.23 114.049 290.28 113.426 289.864 110.811 289.47 108.95 288.769 107.169 287.789 105.539 287.451 105.048 287.077 104.583 286.668 104.149 286.604 104.091 286.585 103.997 286.627 103.92Z" fill="#CEC663" fill-rule="nonzero" fill-opacity="1" transform="matrix(1.00293 0 0 1 854.961 287.174)"/><path d="M243.332 186.961C243.174 185.43 242.802 183.928 242.232 182.499 241.152 178.348 242.232 174.55 243.352 170.668 243.602 169.755 243.954 168.883 244.245 167.991L245.2 167.991C245.2 169.755 244.224 171.27 244.162 173.034 243.826 176.901 244.106 180.796 244.992 184.574 245.144 185.258 245.144 185.966 244.992 186.65Z" fill="#CDC561" fill-rule="nonzero" fill-opacity="1" transform="matrix(1.00293 0 0 1 854.961 287.174)"/><path d="M218.322 191.735C218.177 191.715 218.031 191.715 217.886 191.735L218.529 191.506Z" fill="#AAAAAA" fill-rule="nonzero" fill-opacity="1" transform="matrix(1.00293 0 0 1 854.961 287.174)"/><path d="M220.397 192.274C220.231 192.264 220.065 192.264 219.899 192.274 220.128 192.067 220.356 191.88 220.709 192.046Z" fill="#AAAAAA" fill-rule="nonzero" fill-opacity="1" transform="matrix(1.00293 0 0 1 854.961 287.174)"/><path d="M276.042 206.699C272.617 204.624 272.555 201.531 273.696 198.107 274.348 196.243 274.869 194.336 275.253 192.399 275.307 191.472 276.102 190.764 277.03 190.818 277.129 190.824 277.231 190.839 277.328 190.863 281.868 191.271 286.429 191.389 290.985 191.216 294.613 191.395 298.237 190.823 301.632 189.535 304.895 188.371 307.77 186.323 309.934 183.62 311.346 183.62 311.408 184.574 311.221 185.487 309.457 194.122 308.191 202.922 304.04 210.912 303.656 211.985 302.733 212.776 301.612 212.988 298.712 213.227 295.802 213.31 292.895 213.237 288.059 213.206 283.381 211.506 279.653 208.422 279.13 207.857 278.451 207.46 277.702 207.28 277.308 206.72 276.415 207.55 276.042 206.699Z" fill="#F7F4AD" fill-rule="nonzero" fill-opacity="1" transform="matrix(1.00293 0 0 1 854.961 287.174)"/><path d="M301.695 212.967C306.406 204.52 308.129 195.159 309.997 185.861 310.163 185.114 310.495 184.367 309.997 183.62 311.136 181.818 312.533 180.196 314.148 178.804 312.612 186.484 310.744 194.122 309.416 201.863 308.733 205.426 307.668 208.905 306.24 212.241 305.91 212.749 305.783 213.366 305.887 213.963 304.428 213.99 302.986 213.648 301.695 212.967Z" fill="#DBD57B" fill-rule="nonzero" fill-opacity="1" transform="matrix(1.00293 0 0 1 854.961 287.174)"/><path d="M276.042 206.699C276.643 206.824 277.308 206.699 277.806 207.259 276.828 207.378 275.838 207.286 274.9 206.99Z" fill="#776F6F" fill-rule="nonzero" fill-opacity="1" transform="matrix(1.00293 0 0 1 854.961 287.174)"/><path d="M310.453 98.607C312.932 101.313 314.55 104.693 315.103 108.32 313.65 105.041 312.01 101.866 310.453 98.607Z" fill="#CEC663" fill-rule="nonzero" fill-opacity="1" transform="matrix(1.00293 0 0 1 854.961 287.174)"/><path d="M318.88 108.424C321.454 108.569 322.678 110.5 324.027 112.368 322.201 111.205 321.038 109.171 318.88 108.424Z" fill="#CEC663" fill-rule="nonzero" fill-opacity="1" transform="matrix(1.00293 0 0 1 854.961 287.174)"/><path d="M326.061 115.087C325.901 115.022 325.754 114.93 325.625 114.817 325.49 114.623 325.378 114.414 325.293 114.194L325.48 114.07C325.65 114.233 325.804 114.414 325.937 114.609 325.968 114.774 325.968 114.943 325.937 115.107Z" fill="#CEC663" fill-rule="nonzero" fill-opacity="1" transform="matrix(1.00293 0 0 1 854.961 287.174)"/><path d="M192.337 188.642C193.816 189.416 195.615 189.228 196.903 188.165 197.899 187.604 198.812 186.733 200.161 187.086 200.161 188.186 199.165 188.269 198.729 188.85 197.92 189.95 198.148 190.925 199.476 191.133 200.405 191.258 201.341 191.32 202.278 191.32L203.586 192.108C203.959 192.316 204.437 192.357 204.686 193.105 203.049 193.476 201.382 193.698 199.705 193.769 191.403 193.54 183.101 194.578 174.944 194.371 168.717 194.205 169.963 195.014 167.223 189.576 166.123 187.501 165.148 185.218 164.172 183.038 163.944 182.499 163.487 181.897 163.923 181.336 164.359 180.776 165.168 180.859 165.832 181.004 167.265 181.357 168.655 181.752 169.983 182.187L189.244 188.061C190.232 188.439 191.279 188.636 192.337 188.642Z" fill="#2F3D55" fill-rule="nonzero" fill-opacity="1" transform="matrix(1.00293 0 0 1 854.961 287.174)"/><path d="M135.053 128.515C137.064 129.216 138.694 130.719 139.557 132.666 146.157 145.119 151.304 158.195 156.97 171.042 160.146 178.223 163.404 185.363 166.642 192.503 167.451 194.308 167.493 195.388 166.642 195.429 165.231 195.429 165.21 194.163 164.795 193.354 161.868 186.94 158.963 180.486 156.015 174.051 153.546 168.655 151.055 163.238 148.502 157.883 145.555 151.657 142.649 145.576 140.2 139.204 139.951 138.56 139.681 137.938 139.432 137.294 138.851 135.758 138.353 134.202 137.689 132.687 136.894 131.245 136.014 129.852 135.053 128.515Z" fill="#2F3D55" fill-rule="nonzero" fill-opacity="1" transform="matrix(1.00293 0 0 1 854.961 287.174)"/><path d="M338.307 364.479C336.032 363.435 333.633 362.687 331.167 362.258 322.346 360.622 313.405 359.722 304.434 359.56 303.141 359.578 301.85 359.481 300.574 359.269 298.851 358.916 298.872 358.937 298.914 357.194 299.038 352.358 299.702 347.563 300.034 342.665 300.422 337.337 300.823 332.012 301.238 326.684L303.168 301.923C303.563 296.672 303.936 291.442 304.351 286.191 304.974 278.034 305.659 269.877 306.282 261.7 306.468 259.002 306.406 258.981 308.938 258.151 308.316 256.864 307.133 256.926 306.033 257.072 303.106 257.424 300.2 257.258 297.274 257.383 295.987 257.19 294.671 257.453 293.559 258.13 292.776 259.479 292.434 261.04 292.583 262.592 292.438 267.262 292.168 271.911 291.878 276.56 291.193 286.938 290.632 297.315 290.01 307.693 289.568 314.611 289.152 321.584 288.764 328.614 288.349 336.273 287.747 343.931 287.415 351.59 287.187 356.841 286.564 357.692 281.334 358.19 280.907 358.221 280.475 358.221 280.047 358.19 274.867 358.279 269.697 358.682 264.564 359.394 262.821 359.539 260.87 359.622 259.79 361.469 259.757 363.445 259.022 365.342 257.715 366.824 257.487 367.011 257.715 367.467 257.715 367.799 258.385 368.341 259.186 368.692 260.039 368.816 264.056 369.817 268.142 370.51 272.264 370.892 276.311 371.286 280.338 371.598 284.385 371.93 285.132 371.93 285.838 372.075 285.693 373.071 285.635 375.676 284.638 378.175 282.891 380.107 281.282 381.556 279.418 382.689 277.391 383.449 267.843 387.469 257.912 390.514 247.753 392.539 245.802 392.892 243.871 393.328 241.941 393.764 240.814 394.075 240.052 395.128 240.115 396.296 240.115 397.458 240.779 398.039 241.754 398.372 243.247 398.81 244.764 399.156 246.3 399.409 256.214 400.744 266.204 401.437 276.208 401.485 289.242 401.775 302.261 401.506 315.269 400.675 319.669 400.385 324.027 400.011 328.386 399.389 330.797 399.175 333.17 398.643 335.442 397.811 336.341 397.512 336.955 396.682 336.978 395.736 337.07 394.677 336.513 393.668 335.567 393.183 335.025 392.911 334.444 392.728 333.844 392.643 326.117 391.116 318.494 389.113 311.014 386.645 306.738 385.358 302.38 384.258 299.246 380.564 297.88 379.123 297.091 377.233 297.025 375.25 297.025 372.905 297.149 372.615 299.432 372.656 304.974 372.656 310.474 372.469 316.036 372.199 321.375 371.979 326.694 371.405 331.956 370.477 334.18 370.161 336.347 369.526 338.39 368.588 339.261 368.152 340.05 367.571 340.009 366.513 339.967 365.454 339.178 364.852 338.307 364.479ZM323.363 366.762C320.354 366.907 317.344 367.239 314.335 367.405 305.617 367.841 296.921 368.069 288.204 367.841 281.571 367.492 274.964 366.737 268.424 365.579L267.677 365.413C267.117 365.267 266.266 365.309 266.349 364.499 266.432 363.69 267.221 363.814 267.802 363.711 270.421 363.173 273.08 362.839 275.751 362.714 278.864 362.714 281.978 362.714 285.07 362.507 286.938 362.507 286.979 362.507 287.54 364.333 288.204 366.616 288.412 366.803 290.715 366.886 292.189 366.886 293.663 366.886 295.115 366.886 296.983 366.886 297.481 366.347 298.021 364.541 298.644 362.465 298.644 362.465 300.802 362.465 307.755 362.88 314.75 363.213 321.661 364.188 323.631 364.369 325.561 364.844 327.389 365.599 326.179 366.282 324.832 366.679 323.446 366.762Z" fill="#AAAAAA" fill-rule="nonzero" fill-opacity="1" transform="matrix(1.00293 0 0 1 854.961 287.174)"/></g></g></g></g></svg>